<svg width="391" height="392" viewBox="0 0 391 392" fill="none" xmlns="http://www.w3.org/2000/svg">
<g clip-path="url(#clip0_2_11852)">
<path d="M391.326 0.413818H0.325684V391.414H391.326V0.413818Z" fill="#083344"/>
<path d="M157.053 205.944L157.017 205.98C157.017 205.944 157.017 205.944 157.053 205.908C157.017 205.944 157.017 205.944 157.053 205.944Z" fill="#EDBD1C"/>
<path d="M305.054 222.345C295.026 263.074 262.515 296.562 218.817 305.686C158.14 318.321 98.476 279.257 85.8409 218.58C73.1696 157.866 112.27 98.2384 172.947 85.5671C224.755 74.7784 275.802 101.678 297.488 147.512L310.449 151.784C301.325 127.817 284.961 107.326 263.058 93.0251C235.652 75.068 202.888 68.8772 170.811 75.5387C138.735 82.2364 111.184 100.99 93.2265 128.396C75.2695 155.802 69.0786 188.567 75.7401 220.643C82.4378 252.72 101.191 280.271 128.598 298.228C156.004 316.185 188.768 322.376 220.845 315.714C252.921 309.053 280.472 290.263 298.429 262.857C308.82 247.036 315.264 229.404 317.545 211.158L305.054 222.345Z" fill="white"/>
<path d="M159.443 145.81C159.443 158.662 162.738 170.465 168.204 179.661C162.376 185.236 157.488 191.789 153.795 199.03C147.641 185.2 134.607 152.291 131.639 115.58C148.618 101.931 170.015 93.5682 193.33 93.0251C174.25 96.0301 159.443 118.513 159.443 145.81Z" fill="white"/>
<path d="M151.116 257.064C134.209 236.283 114.876 201.673 105.645 146.643C111.003 136.832 117.881 127.998 125.991 120.431C130.227 161.631 146.193 197.328 150.537 206.488C147.713 214.163 146.156 222.417 146.156 231.07C146.156 240.229 147.93 248.991 151.116 257.064Z" fill="white"/>
<path d="M194.09 298.228C138.228 297.286 93.2266 251.706 93.2266 195.626C93.2266 181.579 96.0505 168.184 101.155 155.983C105.97 181.036 113.247 203.7 122.805 223.467C131.421 241.243 141.884 256.702 153.94 269.482C159.733 275.637 165.344 280.524 170.413 284.434C170.413 284.434 170.413 284.434 170.449 284.47C177.292 290.48 185.293 295.187 194.09 298.228Z" fill="white"/>
<path d="M314.648 171.587C314.648 181.797 307.806 190.449 298.465 193.128C297.741 193.346 297.017 193.49 296.293 193.635C294.954 193.889 293.578 193.997 292.202 193.997C291.116 193.997 289.957 194.142 288.908 193.997L285.613 193.708C283.079 193.708 280.653 194.142 278.372 194.902C276.381 195.59 274.498 196.532 272.833 197.69C272.797 197.726 272.761 197.726 272.724 197.763C272.435 197.98 272.145 198.197 271.856 198.414C271.819 198.414 271.819 198.45 271.783 198.45C268.163 201.455 265.52 205.619 264.361 210.325C263.927 212.063 263.71 213.837 263.71 215.683V215.756C262.841 216.878 262.008 218.073 261.212 219.304C258.207 223.938 255.455 229.441 252.849 235.74C249.59 243.705 246.549 252.937 243.508 263.327C242.748 265.934 241.988 268.613 241.227 271.328C239.308 271.871 237.317 272.125 235.254 272.125C231.126 272.125 227.253 271.003 223.922 269.048C222.329 268.106 220.483 267.78 218.636 268.034C218.202 268.106 217.767 268.106 217.297 268.07C214.581 267.853 212.337 265.717 211.975 263.002C211.938 262.676 211.938 262.35 211.938 262.06C212.011 260.069 211.214 258.186 209.658 256.956C209.368 256.738 209.115 256.485 208.825 256.268C207.992 255.544 206.798 256.521 207.268 257.499C214.219 271.908 215.667 287.62 215.921 295.657C215.523 295.657 215.124 295.657 214.726 295.621C214.545 295.621 214.4 295.621 214.219 295.585C213.821 295.585 213.423 295.549 213.061 295.513C212.59 295.476 212.119 295.44 211.649 295.404C210.744 295.331 209.839 295.223 208.97 295.114C208.897 295.114 208.825 295.114 208.753 295.078C208.318 295.006 207.884 294.969 207.485 294.897C206.58 294.752 205.675 294.607 204.77 294.426C204.77 294.426 204.734 294.426 204.698 294.426C204.299 294.354 203.901 294.282 203.539 294.173C203.213 294.101 202.888 294.028 202.598 293.956C202.344 293.883 202.091 293.847 201.838 293.775C201.439 293.666 201.005 293.558 200.607 293.449C200.208 293.34 199.774 293.232 199.376 293.123C198.941 293.014 198.507 292.87 198.072 292.725C197.638 292.58 197.24 292.471 196.805 292.327C196.769 292.327 196.733 292.29 196.66 292.29C196.262 292.146 195.864 292.001 195.466 291.892C195.466 291.892 195.466 291.892 195.43 291.892C194.995 291.747 194.597 291.602 194.162 291.421C193.692 291.24 193.257 291.059 192.787 290.878C192.75 290.878 192.75 290.878 192.714 290.842C192.352 290.697 191.99 290.553 191.628 290.372C191.049 290.118 190.506 289.901 189.963 289.611C189.601 289.43 189.203 289.249 188.804 289.068C185.98 287.584 182.396 285.484 178.233 282.588C177.907 282.334 177.581 282.081 177.219 281.827C176.929 281.61 176.64 281.357 176.314 281.103C175.952 280.814 175.59 280.524 175.264 280.235C174.938 279.945 174.612 279.691 174.323 279.402C173.49 278.678 172.657 277.917 171.861 277.121C171.68 276.94 171.463 276.723 171.282 276.542C171.028 276.288 170.811 276.071 170.558 275.818C170.377 275.637 170.196 275.456 170.015 275.238C169.073 274.261 168.168 273.247 167.299 272.161C167.118 271.944 166.937 271.727 166.792 271.509C166.648 271.365 166.539 271.184 166.43 271.039C166.249 270.785 166.068 270.568 165.851 270.315C165.127 269.373 164.439 268.432 163.751 267.455C163.643 267.31 163.534 267.129 163.426 266.984C163.063 266.441 162.701 265.898 162.339 265.355C162.195 265.138 162.05 264.92 161.941 264.703C160.746 262.784 159.66 260.757 158.683 258.693C158.574 258.476 158.502 258.295 158.393 258.078C157.416 255.978 156.547 253.806 155.787 251.597C155.606 251.127 155.461 250.62 155.316 250.113C155.026 249.244 154.773 248.375 154.556 247.47C154.483 247.181 154.411 246.927 154.338 246.638C154.266 246.348 154.194 246.094 154.121 245.805C154.049 245.515 153.976 245.262 153.94 245.008C153.94 244.972 153.94 244.936 153.94 244.936C153.868 244.646 153.832 244.393 153.759 244.139C153.687 243.85 153.65 243.56 153.578 243.271C153.397 242.402 153.252 241.497 153.107 240.628C153.035 240.085 152.926 239.505 152.89 238.926C152.854 238.528 152.782 238.13 152.745 237.731C152.709 237.406 152.673 237.08 152.637 236.79C152.601 236.537 152.601 236.283 152.564 235.994C152.528 235.414 152.492 234.871 152.456 234.292C152.456 234.075 152.42 233.858 152.42 233.604C152.42 233.315 152.383 232.989 152.383 232.699C152.383 232.084 152.347 231.504 152.347 230.889C152.347 212.859 159.733 196.568 171.68 184.802C182.831 173.832 197.891 166.845 214.581 166.229C214.871 166.229 215.161 166.229 215.45 166.193C215.812 166.193 216.174 166.193 216.536 166.193C221.967 166.193 227.216 166.845 232.213 168.112C243.11 170.827 252.921 176.294 260.85 183.752C261.429 184.295 262.008 184.874 262.587 185.453C262.696 185.381 262.768 185.308 262.877 185.236C262.913 185.2 262.949 185.164 262.986 185.164C264.723 183.933 266.678 182.919 268.742 182.195C269.756 181.833 270.806 181.579 271.892 181.362C273.231 181.109 274.607 181 275.983 181C278.734 181 281.341 181.507 283.803 182.412C284.31 182.629 284.817 182.847 285.323 183.064C287.749 183.969 290.392 184.476 293.143 184.476C294.7 184.476 296.221 184.331 297.669 184.005C305.453 182.412 311.788 176.764 314.359 169.379C314.576 170.175 314.612 170.863 314.648 171.587Z" fill="white"/>
</g>
<defs>
<clipPath id="clip0_2_11852">
<rect width="391" height="391" fill="white" transform="translate(0 0.1604)"/>
</clipPath>
</defs>
</svg>
